<svg data-logo="logo" xmlns="http://www.w3.org/2000/svg" viewBox="0 0 217 43">
        <g style="opacity: 1;" id="logogram" transform="translate(0, 1.5) rotate(0)"><path d="M33.724 36.5809C37.7426 32.5622 40.0003 27.1118 40.0003 21.4286C40.0003 15.7454 37.7426 10.2949 33.724 6.27629C29.7054 2.25765 24.2549 1.02188e-06 18.5717 0C12.8885 -1.02188e-06 7.43807 2.25764 3.41943 6.27628L10.4905 13.3473C11.6063 14.4631 13.4081 14.4074 14.8276 13.7181C15.9836 13.1568 17.2622 12.8571 18.5717 12.8571C20.845 12.8571 23.0252 13.7602 24.6326 15.3677C26.2401 16.9751 27.1431 19.1553 27.1431 21.4286C27.1431 22.7381 26.8435 24.0167 26.2822 25.1727C25.5929 26.5922 25.5372 28.394 26.6529 29.5098L33.724 36.5809Z" fill="#297AFF"></path><path d="M30 40H19.5098C17.9943 40 16.5408 39.398 15.4692 38.3263L1.67368 24.5308C0.60204 23.4592 0 22.0057 0 20.4902V10L30 40Z" fill="#34C2FF"></path><path d="M10.7143 39.9999H4.28571C1.91878 39.9999 0 38.0812 0 35.7142V29.2856L10.7143 39.9999Z" fill="#34C2FF"></path></g>
        <g style="opacity: 1;" id="logotype" transform="translate(46, 1)"><path fill="#5452ff" d="M15.07 12.86L7.28 12.86L7.28 8.54L28.08 8.54L28.08 12.86L20.30 12.86L20.30 34L15.07 34L15.07 12.86ZM34.40 34L29.27 34L29.27 14.89L34.23 14.89L34.23 18.23L34.44 18.23Q34.97 16.45 36.20 15.54Q37.44 14.64 39.05 14.64L39.05 14.64Q39.44 14.64 39.90 14.68Q40.35 14.72 40.71 14.81L40.71 14.81L40.71 19.39Q40.37 19.27 39.72 19.20Q39.07 19.13 38.49 19.13L38.49 19.13Q37.32 19.13 36.38 19.64Q35.44 20.14 34.92 21.04Q34.40 21.93 34.40 23.13L34.40 23.13L34.40 34ZM46.38 34L41.25 34L41.25 14.89L46.38 14.89L46.38 34ZM43.82 12.40L43.82 12.40Q42.65 12.40 41.83 11.63Q41.01 10.86 41.01 9.77L41.01 9.77Q41.01 8.67 41.83 7.90Q42.65 7.13 43.82 7.13L43.82 7.13Q44.98 7.13 45.81 7.90Q46.64 8.66 46.64 9.77L46.64 9.77Q46.64 10.86 45.81 11.63Q44.98 12.40 43.82 12.40ZM53.59 41.14L48.46 41.14L48.46 14.89L53.50 14.89L53.50 18.11L53.74 18.11Q54.10 17.35 54.76 16.55Q55.42 15.75 56.49 15.20Q57.57 14.65 59.19 14.65L59.19 14.65Q61.31 14.65 63.07 15.75Q64.83 16.84 65.89 19.03Q66.94 21.22 66.94 24.48L66.94 24.48Q66.94 27.66 65.91 29.86Q64.89 32.05 63.13 33.19Q61.36 34.32 59.16 34.32L59.16 34.32Q57.61 34.32 56.53 33.79Q55.45 33.27 54.78 32.49Q54.10 31.71 53.74 30.94L53.74 30.94L53.59 30.94L53.59 41.14ZM57.59 30.21L57.59 30.21Q58.92 30.21 59.84 29.47Q60.75 28.74 61.22 27.44Q61.69 26.14 61.69 24.46L61.69 24.46Q61.69 22.79 61.22 21.51Q60.75 20.23 59.84 19.49Q58.94 18.76 57.59 18.76L57.59 18.76Q56.27 18.76 55.35 19.47Q54.43 20.17 53.95 21.45Q53.47 22.72 53.47 24.46L53.47 24.46Q53.47 26.19 53.96 27.48Q54.44 28.77 55.37 29.49Q56.29 30.21 57.59 30.21ZM79.50 34.34L79.50 34.34Q76.11 34.34 73.44 32.80Q70.76 31.27 69.22 28.34Q67.67 25.42 67.67 21.29L67.67 21.29Q67.67 17.13 69.22 14.20Q70.78 11.27 73.46 9.73Q76.15 8.19 79.50 8.19L79.50 8.19Q81.67 8.19 83.54 8.80Q85.41 9.41 86.86 10.57Q88.31 11.73 89.24 13.42Q90.16 15.10 90.45 17.23L90.45 17.23L85.17 17.23Q85.00 16.19 84.51 15.38Q84.02 14.57 83.30 14.00Q82.57 13.42 81.63 13.12Q80.69 12.83 79.60 12.83L79.60 12.83Q77.62 12.83 76.11 13.82Q74.61 14.81 73.79 16.70Q72.97 18.58 72.97 21.29L72.97 21.29Q72.97 24.04 73.80 25.92Q74.64 27.80 76.13 28.75Q77.62 29.71 79.58 29.71L79.58 29.71Q80.67 29.71 81.61 29.41Q82.54 29.11 83.28 28.54Q84.02 27.97 84.51 27.15Q85.00 26.33 85.19 25.30L85.19 25.30L90.47 25.30Q90.26 27.06 89.42 28.69Q88.57 30.31 87.17 31.59Q85.77 32.87 83.84 33.61Q81.90 34.34 79.50 34.34ZM100.41 34.38L100.41 34.38Q97.54 34.38 95.44 33.14Q93.34 31.90 92.20 29.68Q91.06 27.47 91.06 24.53L91.06 24.53Q91.06 21.56 92.20 19.35Q93.34 17.13 95.44 15.89Q97.54 14.65 100.41 14.65L100.41 14.65Q103.30 14.65 105.39 15.89Q107.49 17.13 108.62 19.35Q109.76 21.56 109.76 24.53L109.76 24.53Q109.76 27.47 108.62 29.68Q107.49 31.90 105.39 33.14Q103.30 34.38 100.41 34.38ZM100.41 30.34L100.41 30.34Q101.78 30.34 102.70 29.58Q103.62 28.82 104.09 27.50Q104.55 26.17 104.55 24.52L104.55 24.52Q104.55 22.82 104.09 21.51Q103.62 20.19 102.70 19.44Q101.78 18.69 100.41 18.69L100.41 18.69Q99.04 18.69 98.13 19.44Q97.22 20.19 96.75 21.51Q96.29 22.82 96.29 24.52L96.29 24.52Q96.29 26.17 96.75 27.50Q97.22 28.82 98.13 29.58Q99.04 30.34 100.41 30.34ZM116.18 34L111.06 34L111.06 14.89L116.01 14.89L116.01 18.23L116.22 18.23Q116.75 16.45 117.99 15.54Q119.22 14.64 120.83 14.64L120.83 14.64Q121.22 14.64 121.68 14.68Q122.13 14.72 122.49 14.81L122.49 14.81L122.49 19.39Q122.15 19.27 121.50 19.20Q120.85 19.13 120.27 19.13L120.27 19.13Q119.11 19.13 118.17 19.64Q117.23 20.14 116.70 21.04Q116.18 21.93 116.18 23.13L116.18 23.13L116.18 34ZM121.19 14.89L132.52 14.89L132.52 18.81L121.19 18.81L121.19 14.89ZM123.82 28.86L123.82 10.35L128.95 10.35L128.95 28.41Q128.95 29.32 129.35 29.75Q129.75 30.19 130.69 30.19L130.69 30.19Q130.98 30.19 131.51 30.11Q132.04 30.04 132.31 29.97L132.31 29.97L133.05 33.81Q132.19 34.07 131.35 34.17Q130.50 34.27 129.73 34.27L129.73 34.27Q126.86 34.27 125.34 32.87Q123.82 31.47 123.82 28.86L123.82 28.86ZM142.21 34.38L142.21 34.38Q139.28 34.38 137.17 33.18Q135.05 31.98 133.91 29.78Q132.77 27.57 132.77 24.55L132.77 24.55Q132.77 21.59 133.90 19.37Q135.03 17.15 137.10 15.90Q139.16 14.65 141.95 14.65L141.95 14.65Q143.83 14.65 145.45 15.25Q147.08 15.85 148.31 17.06Q149.54 18.26 150.23 20.07Q150.92 21.88 150.92 24.34L150.92 24.34L150.92 25.78L134.88 25.78L134.88 22.57L148.41 22.57L146.02 23.42Q146.02 21.93 145.56 20.83Q145.11 19.73 144.21 19.12Q143.32 18.52 141.98 18.52L141.98 18.52Q140.67 18.52 139.74 19.13Q138.81 19.75 138.33 20.80Q137.85 21.85 137.85 23.20L137.85 23.20L137.85 25.47Q137.85 27.13 138.40 28.26Q138.96 29.39 139.96 29.95Q140.96 30.51 142.29 30.51L142.29 30.51Q143.20 30.51 143.93 30.26Q144.67 30.00 145.19 29.50Q145.71 28.99 145.98 28.26L145.98 28.26L150.63 29.13Q150.17 30.70 149.03 31.89Q147.88 33.08 146.16 33.73Q144.45 34.38 142.21 34.38ZM156.12 34L150.68 34L158.08 22.19L158.06 26.19L151.06 14.89L156.59 14.89L158.32 17.92Q159.14 19.39 159.80 20.83Q160.46 22.28 161.14 23.64L161.14 23.64L159.19 23.64Q159.89 22.29 160.54 20.84Q161.19 19.39 162.05 17.92L162.05 17.92L163.84 14.89L169.27 14.89L162.13 26.24L162.13 22.29L169.55 34L164.05 34L161.93 30.39Q161.09 28.94 160.41 27.49Q159.74 26.04 159.04 24.70L159.04 24.70L161.00 24.70Q160.34 26.04 159.70 27.49Q159.06 28.94 158.23 30.39L158.23 30.39L156.12 34Z"></path></g>
        
      </svg>